# xmcd
#
# Track frame offsets: 
#        150
#        12698
#        48257
#        55294
#        61618
#        78554
#        90642
#        107221
#        117320
#        126756
#        137569
#        150423
#        170624
#        193325
#        200669
#        204645
#        209336
#        218670
#        233560
#        245705
#        260446
#        268198
#        289675
#        302784
#        310587
#        315023
#        321653
#        332874
#
# Disc length: 4617 seconds
#
# Revision: 0
# Processed by: cddbd v1.5.2PL0 Copyright (c) Steve Scherf et al.
# Submitted via: ExactAudioCopy v0.99pb5
#
DISCID=a212071c
DTITLE=Elvis Presley  - FTD 27 - Dragonheart, 10-01-1974
DYEAR=1900
DGENRE=
TTITLE0=See see rider
TTITLE1=I got a woman-Amen
TTITLE2=Love me
TTITLE3=Blue suede shoes
TTITLE4=Its midnight
TTITLE5=Big boss man
TTITLE6=Fever
TTITLE7=Love me tender
TTITLE8=Hound dog
TTITLE9=Heartbreak hotel
TTITLE10=If you love me
TTITLE11=Bridge over trouble water
TTITLE12=Introductions
TTITLE13=Lawdy miss Clawdy
TTITLE14=Introductions
TTITLE15=All shook up
TTITLE16=Teddy bear-Don't be cruel
TTITLE17=Let me be there
TTITLE18=Its now or never
TTITLE19=You gave me a mountain
TTITLE20=Johnny B. Goode
TTITLE21=Hawaiian wedding song
TTITLE22=Steamroller blues
TTITLE23=Can't help falling in love
TTITLE24=Closing vamp and announcement
TTITLE25=Alright, Ok, you win
TTITLE26=Blue christmas
TTITLE27=Trying to get to you
EXTD=
EXTT0=
EXTT1=
EXTT2=
EXTT3=
EXTT4=
EXTT5=
EXTT6=
EXTT7=
EXTT8=
EXTT9=
EXTT10=
EXTT11=
EXTT12=
EXTT13=
EXTT14=
EXTT15=
EXTT16=
EXTT17=
EXTT18=
EXTT19=
EXTT20=
EXTT21=
EXTT22=
EXTT23=
EXTT24=
EXTT25=
EXTT26=
EXTT27=
PLAYORDER=
